<svg width="78" height="82" viewBox="0 0 78 82" fill="none" xmlns="http://www.w3.org/2000/svg">
<path d="M31.8862 77.4094V63.6377H28.6976C20.7579 63.6377 13.9901 61.6236 8.39404 57.5954C2.79801 53.5671 0 48.6954 0 42.9801C0 38.7369 1.699 34.8762 5.09701 31.3981C8.49395 27.92 12.9761 25.389 18.5434 23.8053C18.74 20.6745 20.6064 18.2469 24.1426 16.5224C27.6788 14.7978 31.4292 14.4359 35.3937 15.4367L32.8555 10.5374C32.3241 9.5642 32.3629 8.63652 32.9719 7.75436C33.5809 6.87297 34.5726 6.23221 35.9469 5.83206L37.2096 5.47859L36.3503 3.80188C35.9581 3.06586 35.9862 2.35049 36.4348 1.65579C36.8833 0.96108 37.6523 0.469893 38.7417 0.182217C39.7642 -0.0825063 40.767 -0.0587889 41.7502 0.25337C42.7333 0.566294 43.3944 1.1076 43.7335 1.87728L44.5928 3.55399L45.3278 3.37725C46.6203 3.03602 47.9 3.08919 49.1669 3.53678C50.4339 3.98359 51.3453 4.67218 51.9011 5.60253L64.2395 29.835C64.7954 30.7654 64.7688 31.682 64.1598 32.5848C63.5508 33.4883 62.6 34.1402 61.3076 34.5404L60.4132 34.8055L61.2709 36.4822C61.6631 37.2358 61.6349 37.9657 61.1864 38.6719C60.7379 39.3781 59.9689 39.8723 58.8794 40.1546C57.858 40.4201 56.8557 40.3964 55.8726 40.0835C54.8884 39.7705 54.2267 39.2296 53.8877 38.4607L53.0299 36.7829L52.0494 37.1363C50.6751 37.5365 49.3274 37.5166 48.0063 37.0766C46.684 36.6375 45.7588 35.9156 45.2306 34.911L42.8997 30.1093C41.6327 31.4153 40.0039 32.4539 38.0131 33.2252C36.0224 33.9964 33.8823 34.3644 31.5928 34.3292C28.9272 34.2932 26.5235 33.7324 24.3818 32.6467C22.239 31.5611 20.6282 30.1617 19.5494 28.4487C15.535 29.7317 12.3362 31.6713 9.95327 34.2672C7.56925 36.8624 6.37724 39.7667 6.37724 42.9801C6.37724 47.4429 8.54762 51.2367 12.8884 54.3613C17.2281 57.4852 22.4978 59.0471 28.6976 59.0471H73.3382C74.2417 59.0471 74.999 59.2675 75.6101 59.7082C76.2213 60.1489 76.5269 60.6948 76.5269 61.3459C76.5269 61.997 76.2213 62.5417 75.6101 62.9801C74.999 63.4185 74.2417 63.6377 73.3382 63.6377H39.7366V77.4094H74.8114C75.7148 77.4094 76.4721 77.6298 77.0833 78.0705C77.6944 78.5112 78 79.0571 78 79.7082C78 80.3592 77.6944 80.904 77.0833 81.3424C76.4721 81.7808 75.7148 82 74.8114 82H3.18862C2.28518 82 1.52788 81.7796 0.916728 81.339C0.305576 80.8983 0 80.3524 0 79.7013C0 79.0502 0.305576 78.5054 0.916728 78.067C1.52788 77.6286 2.28518 77.4094 3.18862 77.4094H31.8862ZM50.5029 33.146L58.6961 30.8323L46.8727 7.31482L38.3623 9.45173L50.5029 33.146ZM31.8782 30.2677C34.0996 30.2677 35.9644 29.7268 37.4727 28.6449C38.9819 27.5631 39.7366 26.2226 39.7366 24.6236C39.7366 23.0245 38.9851 21.6822 37.4822 20.5965C35.9793 19.5108 34.1172 18.968 31.8958 18.968C29.6744 18.968 27.8095 19.5089 26.3013 20.5908C24.792 21.6726 24.0374 23.0131 24.0374 24.6121C24.0374 26.2111 24.7889 27.5535 26.2918 28.6392C27.7947 29.7248 29.6568 30.2677 31.8782 30.2677Z" fill="#E3E3E3"/>
</svg>
