<svg width="78" height="78" viewBox="0 0 78 78" fill="none" xmlns="http://www.w3.org/2000/svg">
<path d="M27.8611 78.0093C24.3105 78.0093 21.2685 76.7869 18.7352 74.3423C16.2019 71.8968 14.8592 68.9083 14.7072 65.3766C10.7489 64.6823 7.46027 62.7974 4.84144 59.7218C2.22339 56.6469 0.914375 53.0603 0.914375 48.9618C0.914375 47.5067 1.1016 46.0691 1.47606 44.6488C1.85052 43.2294 2.41221 41.8962 3.16112 40.6493C2.10742 39.2853 1.31733 37.772 0.790874 36.1095C0.263624 34.4478 0 32.703 0 30.875C0 26.5905 1.41589 22.8855 4.24769 19.76C7.07948 16.6345 10.5874 14.8465 14.7713 14.3961C14.7104 14.1522 14.6799 13.9088 14.6799 13.6657V12.8428C14.7345 9.23202 16.0376 6.18885 18.5891 3.71331C21.1407 1.23777 24.2313 0 27.8611 0C30.1633 0 32.1286 0.456789 33.7571 1.37037C35.3863 2.28396 36.9835 3.62662 38.5486 5.39837C40.1565 3.62662 41.7489 2.28396 43.3259 1.37037C44.9029 0.456789 46.873 0 49.2361 0C52.7796 0 55.8287 1.24846 58.3834 3.74537C60.9389 6.24229 62.244 9.26567 62.2986 12.8155V13.6384C62.2986 13.8815 62.2681 14.1249 62.2072 14.3688C66.3911 14.8192 69.9188 16.5973 72.7902 19.703C75.6616 22.8087 77.0973 26.5327 77.0973 30.875C77.0973 32.703 76.8186 34.4478 76.2613 36.1095C75.7039 37.772 74.8984 39.2853 73.8447 40.6493C74.5936 41.8914 75.1707 43.2234 75.5761 44.6453C75.9806 46.0663 76.1829 47.5051 76.1829 48.9618C76.1829 53.1394 74.8691 56.7613 72.2416 59.8274C69.614 62.8936 66.2906 64.7433 62.2713 65.3766C62.1193 68.9083 60.7964 71.8968 58.3027 74.3423C55.8089 76.7869 52.7868 78.0093 49.2361 78.0093C46.831 78.0093 44.8503 77.5572 43.2939 76.6531C41.7383 75.7491 40.1565 74.3803 38.5486 72.5468C36.9225 74.3803 35.321 75.7491 33.744 76.6531C32.167 77.5572 30.206 78.0093 27.8611 78.0093ZM40.9236 13.0625V64.9468C40.9236 67.2743 41.7311 69.2415 43.3461 70.8486C44.9603 72.4557 46.9367 73.2593 49.2753 73.2593C51.5023 73.2593 53.4031 72.4739 54.9777 70.9033C56.5515 69.3318 57.4085 67.45 57.5486 65.2579C55.2164 65.0505 53.0531 64.3819 51.0589 63.2522C49.0639 62.1225 47.3908 60.5926 46.0394 58.6625C45.6127 58.102 45.4504 57.5134 45.5525 56.8967C45.6538 56.2792 45.9895 55.7777 46.5595 55.3921C47.12 54.9662 47.7205 54.8039 48.3609 54.9053C49.0006 55.0074 49.5207 55.3434 49.9213 55.9134C51.0154 57.5047 52.4079 58.7231 54.0989 59.5686C55.7899 60.4141 57.6096 60.8368 59.5579 60.8368C62.9011 60.8368 65.7162 59.6933 68.0034 57.4061C70.2897 55.1198 71.4329 52.305 71.4329 48.9618C71.4329 48.1599 71.3371 47.3579 71.1455 46.5559C70.9539 45.754 70.6875 44.9726 70.3463 44.2118C69.0005 45.2465 67.4765 46.0532 65.7744 46.6319C64.0724 47.2106 62.305 47.5 60.4723 47.5C59.7993 47.5 59.2353 47.272 58.7801 46.816C58.3249 46.36 58.0973 45.7951 58.0973 45.1214C58.0973 44.4477 58.3249 43.8841 58.7801 43.4304C59.2353 42.9768 59.7993 42.75 60.4723 42.75C63.8155 42.75 66.6302 41.6064 68.9166 39.3193C71.2037 37.033 72.3473 34.2182 72.3473 30.875C72.3473 27.6268 71.2342 24.8706 69.008 22.6064C66.7818 20.3423 64.0581 19.1401 60.8368 19C60.0879 20.486 59.0817 21.7784 57.8182 22.8772C56.5547 23.9768 55.1222 24.8433 53.5206 25.4766C52.9237 25.7078 52.3315 25.6884 51.7441 25.4184C51.1567 25.1485 50.7652 24.7051 50.5697 24.0884C50.3567 23.4915 50.3706 22.8883 50.6113 22.2787C50.8519 21.6699 51.3008 21.259 51.9579 21.0461C53.633 20.4674 54.9836 19.4505 56.0096 17.9954C57.0356 16.5395 57.5486 14.8798 57.5486 13.0162C57.5486 10.7148 56.7447 8.76177 55.1368 7.15706C53.5281 5.55235 51.5597 4.75 49.2314 4.75C46.9023 4.75 44.9354 5.55354 43.3307 7.16062C41.726 8.76771 40.9236 10.735 40.9236 13.0625ZM36.1736 64.9468V13.0625C36.1736 10.735 35.3697 8.76771 33.7618 7.16062C32.1531 5.55354 30.1847 4.75 27.8564 4.75C25.5273 4.75 23.5604 5.55354 21.9557 7.16062C20.351 8.76771 19.5486 10.735 19.5486 13.0625C19.5486 14.877 20.0573 16.5165 21.0746 17.9811C22.0911 19.4457 23.4369 20.4674 25.1121 21.0461C25.7082 21.259 26.1618 21.6549 26.4729 22.2336C26.7833 22.8123 26.8371 23.4064 26.6344 24.016C26.3914 24.6264 25.9655 25.065 25.3567 25.3318C24.7487 25.5985 24.1158 25.6164 23.4579 25.3852C21.8563 24.7519 20.4238 23.9008 19.1603 22.8321C17.8968 21.7633 16.8906 20.486 16.1417 19C12.9996 19.1401 10.3154 20.3534 8.08925 22.6397C5.86308 24.9268 4.75 27.6818 4.75 30.9047C4.75 34.2281 5.89356 37.033 8.18069 39.3193C10.467 41.6064 13.2818 42.75 16.625 42.75C17.2979 42.75 17.862 42.978 18.3172 43.434C18.7724 43.8892 19 44.4541 19 45.1286C19 45.8023 18.7724 46.3659 18.3172 46.8196C17.862 47.2732 17.2979 47.5 16.625 47.5C14.7923 47.5 13.0249 47.2106 11.3228 46.6319C9.62073 46.0532 8.09677 45.2465 6.75094 44.2118C6.40973 44.9726 6.14333 45.754 5.95175 46.5559C5.76017 47.3579 5.66437 48.1599 5.66437 48.9618C5.66437 52.305 6.80754 55.1198 9.09388 57.4061C11.381 59.6933 14.1962 60.8368 17.5394 60.8368C19.5059 60.8368 21.3251 60.4089 22.9971 59.5531C24.6683 58.6973 26.0613 57.4841 27.1759 55.9134C27.5765 55.3434 28.0966 55.0074 28.7363 54.9053C29.3768 54.8039 29.9773 54.9512 30.5378 55.347C31.0983 55.7428 31.4315 56.2543 31.5376 56.8813C31.6445 57.5083 31.4846 58.102 31.0579 58.6625C29.6455 60.5926 27.9375 62.1272 25.9338 63.2664C23.9301 64.4049 21.7621 65.0778 19.4299 65.2852C19.57 67.4773 20.4468 69.3544 22.0602 70.9163C23.6744 72.4783 25.595 73.2593 27.8219 73.2593C30.1605 73.2593 32.1369 72.4557 33.7511 70.8486C35.3661 69.2415 36.1736 67.2743 36.1736 64.9468Z" fill="#E3E3E3"/>
</svg>
