<svg width="66" height="127" viewBox="0 0 66 127" fill="none" xmlns="http://www.w3.org/2000/svg">
<path d="M57.0009 31.312C57.0009 24.4549 54.6356 18.9424 49.905 14.7746C45.1744 10.6067 38.9462 8.5228 31.2203 8.5228C26.2352 8.5228 21.8833 9.47548 18.1646 11.3809C14.447 13.2862 11.2329 16.2238 8.52224 20.1935C7.67342 21.3125 6.58638 22.0157 5.26111 22.3031C3.9346 22.5905 2.74098 22.3386 1.68027 21.5473C0.792585 20.8991 0.254709 20.048 0.0666394 18.9938C-0.12143 17.9408 0.0885762 16.9392 0.696667 15.989C4.32264 10.5884 8.66015 6.5734 13.7092 3.94404C18.7582 1.31468 24.5953 0 31.2203 0C41.4538 0 49.8085 2.89291 56.2843 8.67873C62.7614 14.4645 66 21.9527 66 31.1433C66 36.2699 64.8572 41.0584 62.5715 45.5087C60.2858 49.9579 56.7169 54.2853 51.8647 58.4911C45.9719 63.5235 41.9215 67.7495 39.7135 71.1689C37.5043 74.5895 36.3421 78.3929 36.2267 82.5791C36.1114 83.8204 35.6218 84.855 34.7579 85.6829C33.8953 86.5109 32.8415 86.9249 31.5965 86.9249C30.3527 86.9249 29.2995 86.4944 28.4369 85.6334C27.573 84.7725 27.1411 83.7354 27.1411 82.5222C27.1411 77.4702 28.3755 72.8627 30.8442 68.6997C33.3142 64.5368 37.4423 59.9721 43.2286 55.0056C48.3691 50.6311 51.95 46.64 53.9711 43.0323C55.9909 39.4245 57.0009 35.5178 57.0009 31.312ZM31.2203 127C29.2055 127 27.4483 126.269 25.9487 124.806C24.448 123.343 23.6976 121.629 23.6976 119.662C23.6976 117.696 24.448 115.981 25.9487 114.518C27.4483 113.056 29.2055 112.324 31.2203 112.324C33.2364 112.324 34.9943 113.056 36.4938 114.518C37.9933 115.981 38.7431 117.696 38.7431 119.662C38.7431 121.629 37.9933 123.343 36.4938 124.806C34.9943 126.269 33.2364 127 31.2203 127Z" fill="#4FB7B3"/>
</svg>
