<svg width="87" height="78" viewBox="0 0 87 78" fill="none" xmlns="http://www.w3.org/2000/svg">
<path d="M38.6667 72.5V62.8333H7.80825C5.5833 62.8333 3.72569 62.0882 2.23542 60.5979C0.745139 59.1076 0 57.25 0 55.0251V7.80825C0 5.5833 0.745139 3.72569 2.23542 2.23542C3.72569 0.745139 5.5833 0 7.80825 0H79.1917C81.4167 0 83.2743 0.745139 84.7646 2.23542C86.2549 3.72569 87 5.5833 87 7.80825V55.0251C87 57.25 86.2549 59.1076 84.7646 60.5979C83.2743 62.0882 81.4167 62.8333 79.1917 62.8333H48.3333V72.5H55.5833C56.2713 72.5 56.846 72.7308 57.3076 73.1924C57.7692 73.654 58 74.2287 58 74.9167C58 75.6046 57.7692 76.1794 57.3076 76.641C56.846 77.1025 56.2713 77.3333 55.5833 77.3333H31.4167C30.7287 77.3333 30.154 77.1025 29.6924 76.641C29.2308 76.1794 29 75.6046 29 74.9167C29 74.2287 29.2308 73.654 29.6924 73.1924C30.154 72.7308 30.7287 72.5 31.4167 72.5H38.6667ZM7.80825 58H79.1917C79.9361 58 80.618 57.6903 81.2375 57.0708C81.8569 56.4513 82.1667 55.7694 82.1667 55.0251V7.80825C82.1667 7.06392 81.8569 6.38201 81.2375 5.76254C80.618 5.14307 79.9361 4.83333 79.1917 4.83333H7.80825C7.06392 4.83333 6.38201 5.14307 5.76254 5.76254C5.14307 6.38201 4.83333 7.06392 4.83333 7.80825V55.0251C4.83333 55.7694 5.14307 56.4513 5.76254 57.0708C6.38201 57.6903 7.06392 58 7.80825 58Z" fill="#E3E3E3"/>
</svg>
