<svg width="128" height="128" viewBox="0 0 128 128" fill="none" xmlns="http://www.w3.org/2000/svg">
<path d="M64 56C68.4 56 72.1667 54.4333 75.3 51.3C78.4333 48.1667 80 44.4 80 40C80 35.6 78.4333 31.8333 75.3 28.7C72.1667 25.5667 68.4 24 64 24C59.6 24 55.8333 25.5667 52.7 28.7C49.5667 31.8333 48 35.6 48 40C48 44.4 49.5667 48.1667 52.7 51.3C55.8333 54.4333 59.6 56 64 56ZM60 120V89.97C52.6467 89.426 46.2493 86.7613 40.808 81.976C35.3667 77.192 31.9587 71.1693 30.584 63.908C22.1227 62.9133 14.91 59.444 8.946 53.5C2.982 47.556 0 40.3893 0 32V28.924C0 25.3693 1.26533 22.3267 3.796 19.796C6.32667 17.2653 9.36933 16 12.924 16H29.23V12.924C29.23 9.36933 30.4953 6.32666 33.026 3.796C35.558 1.26533 38.6007 0 42.154 0H85.846C89.3993 0 92.442 1.26533 94.974 3.796C97.5047 6.32666 98.77 9.36933 98.77 12.924V16H115.076C118.631 16 121.673 17.2653 124.204 19.796C126.735 22.3267 128 25.3693 128 28.924V32C128 40.3893 125.018 47.556 119.054 53.5C113.09 59.444 105.877 62.9133 97.416 63.908C96.0413 71.1693 92.6333 77.192 87.192 81.976C81.7507 86.7613 75.3533 89.426 68 89.97V120H88.924C90.0573 120 91.0073 120.384 91.774 121.152C92.5407 121.92 92.924 122.871 92.924 124.006C92.924 125.141 92.5407 126.09 91.774 126.854C91.0073 127.618 90.0573 128 88.924 128H39.076C37.9427 128 36.9927 127.616 36.226 126.848C35.4593 126.08 35.076 125.129 35.076 123.994C35.076 122.859 35.4593 121.91 36.226 121.146C36.9927 120.382 37.9427 120 39.076 120H60ZM29.23 55.324V24H12.924C11.488 24 10.308 24.4613 9.384 25.384C8.46133 26.308 8 27.488 8 28.924V32C8 37.9893 10.0307 43.1973 14.092 47.624C18.1533 52.0493 23.1993 54.616 29.23 55.324ZM64.036 82.154C71.396 82.154 77.6407 79.5813 82.77 74.436C87.898 69.2907 90.462 63.0427 90.462 55.692V12.924C90.462 11.488 90 10.308 89.076 9.384C88.1533 8.46133 86.974 8 85.538 8H42.462C41.026 8 39.8467 8.46133 38.924 9.384C38 10.308 37.538 11.488 37.538 12.924V55.692C37.538 63.0427 40.114 69.2907 45.266 74.436C50.4193 79.5813 56.676 82.154 64.036 82.154ZM98.77 55.324C104.801 54.616 109.847 52.0493 113.908 47.624C117.969 43.1973 120 37.9893 120 32V28.924C120 27.488 119.539 26.308 118.616 25.384C117.692 24.4613 116.512 24 115.076 24H98.77V55.324Z" fill="#4FB7B3"/>
</svg>
