<svg width="77" height="75" viewBox="0 0 77 75" fill="none" xmlns="http://www.w3.org/2000/svg">
<path d="M23.8892 59.0302C24.5915 59.0302 25.1237 58.8125 25.4859 58.3771C25.8474 57.9417 26.0723 57.3983 26.1607 56.7469C26.3033 55.7316 26.4142 54.7031 26.4933 53.6615C26.5732 52.6198 26.657 51.6024 26.7447 50.6094C26.8324 49.792 26.9379 48.9719 27.0612 48.149C27.1846 47.326 27.3257 46.458 27.4847 45.5448C29.2892 45.251 31.0716 44.9958 32.8319 44.7792C34.5923 44.5632 36.3583 44.359 38.13 44.1667C39.8247 44.0118 41.5151 43.8823 43.2013 43.7781C44.8881 43.674 46.5622 43.5524 48.2234 43.4135C48.5799 44.8663 48.8993 46.2392 49.1816 47.5323C49.4647 48.8246 49.8201 50.1413 50.2478 51.4823C50.6535 52.599 51.0991 53.7316 51.5846 54.8802C52.0695 56.0281 52.6466 57.0375 53.3161 57.9083C53.8209 58.5653 54.4283 59.0087 55.1384 59.2385C55.8485 59.4684 56.549 59.3965 57.2399 59.0229C57.8815 58.6965 58.2163 58.1941 58.2441 57.5156C58.2712 56.8372 58.0819 56.0361 57.6762 55.1125C57.2099 54.0278 56.7697 52.8993 56.3554 51.7271C55.9412 50.5542 55.5833 49.4177 55.2817 48.3177C55.035 47.399 54.783 46.5135 54.5256 45.6615C54.2675 44.8094 54.0315 43.9479 53.8176 43.0771C54.3609 43.0611 54.8832 42.9983 55.3844 42.8885C55.8863 42.7788 56.3319 42.6226 56.7212 42.4198C57.1661 42.217 57.5404 41.9271 57.8441 41.55C58.1485 41.1736 58.3008 40.7184 58.3008 40.1844C58.3008 39.6344 58.0858 39.2056 57.6559 38.8979C57.2253 38.591 56.7166 38.3708 56.1298 38.2375C55.6521 38.1569 55.1516 38.1049 54.6283 38.0812C54.1043 38.0569 53.5378 38.0875 52.9289 38.1729C52.7864 36.9764 52.6438 35.8104 52.5012 34.675C52.3586 33.5403 52.2078 32.3747 52.0488 31.1781C51.8898 29.9976 51.7076 28.8358 51.5023 27.6927C51.2963 26.549 51.0424 25.4135 50.7409 24.2865C50.368 22.9622 49.8718 21.7642 49.2522 20.6927C48.6326 19.6219 47.8783 18.6965 46.9893 17.9167C46.2271 17.2597 45.3894 16.7535 44.4761 16.3979C43.5635 16.0431 42.5667 15.8656 41.4859 15.8656C40.2468 15.8656 39.0786 16.0847 37.9813 16.5229C36.8848 16.9604 35.8428 17.5639 34.8553 18.3333C33.7973 19.1507 32.8213 20.0868 31.9272 21.1417C31.0331 22.1965 30.2022 23.341 29.4343 24.575C29.0835 24.1583 28.7449 23.8139 28.4183 23.5417C28.0918 23.2694 27.6708 23.1333 27.1553 23.1333C26.6456 23.1333 26.1918 23.2882 25.7939 23.5979C25.3968 23.9076 25.1982 24.3351 25.1982 24.8802C25.1982 26.4503 25.0856 28.0208 24.8603 29.5917C24.6357 31.1618 24.3534 32.7056 24.0133 34.2229C23.7117 35.5479 23.4019 36.8285 23.084 38.0646C22.7653 39.3014 22.4277 40.5823 22.0712 41.9073C21.6712 41.9392 21.2916 41.9965 20.9322 42.0792C20.5729 42.1618 20.2342 42.2622 19.9163 42.3802C19.4008 42.5135 18.9773 42.7205 18.6458 43.001C18.3135 43.2816 18.1474 43.6729 18.1474 44.175C18.1474 44.5542 18.2461 44.8719 18.4436 45.1281C18.6411 45.3844 18.9181 45.6062 19.2746 45.7937C19.6311 45.9806 19.9765 46.0938 20.3109 46.1333C20.646 46.1736 21.0246 46.2017 21.4466 46.2177C21.3204 47.2115 21.2121 48.1931 21.1215 49.1625C21.031 50.1319 20.9857 51.1243 20.9857 52.1396C20.9857 53.0639 21.0242 53.9531 21.1012 54.8073C21.1775 55.6622 21.3201 56.4368 21.529 57.1312C21.7372 57.7187 22.0156 58.1823 22.3642 58.5219C22.7121 58.8608 23.2205 59.0302 23.8892 59.0302ZM29.2621 40.0479C29.799 38.184 30.3116 36.3319 30.8 34.4917C31.2884 32.6514 31.9436 30.8524 32.7656 29.0948C33.6875 27.1128 34.8995 25.251 36.4017 23.5094C37.9047 21.7684 39.5666 20.8979 41.3875 20.8979C42.7749 20.8979 43.7813 21.6215 44.4065 23.0688C45.0318 24.5167 45.4952 26.1542 45.7968 27.9812C46.1205 29.6903 46.3672 31.4236 46.5369 33.1812C46.7073 34.9389 46.9187 36.6722 47.1711 38.3812C45.6845 38.4507 44.1763 38.5375 42.6462 38.6417C41.1162 38.7458 39.6354 38.8674 38.2038 39.0062C36.7172 39.1451 35.2268 39.2882 33.7324 39.4354C32.238 39.5819 30.748 39.7861 29.2621 40.0479ZM6.91075 75C4.99644 75 3.3659 74.3444 2.01911 73.0333C0.673038 71.7215 0 70.1333 0 68.2687V6.73125C0 4.86667 0.673038 3.27847 2.01911 1.96667C3.3659 0.655556 4.99644 0 6.91075 0H70.0892C72.0036 0 73.6341 0.655556 74.9809 1.96667C76.327 3.27847 77 4.86667 77 6.73125V68.2687C77 70.1333 76.327 71.7215 74.9809 73.0333C73.6341 74.3444 72.0036 75 70.0892 75H6.91075ZM6.91075 70.8333H70.0892C70.8571 70.8333 71.4881 70.5931 71.9822 70.1125C72.4755 69.6312 72.7222 69.0167 72.7222 68.2687V6.73125C72.7222 5.98333 72.4755 5.36875 71.9822 4.8875C71.4881 4.40694 70.8571 4.16667 70.0892 4.16667H6.91075C6.14289 4.16667 5.51192 4.40694 5.01783 4.8875C4.52446 5.36875 4.27778 5.98333 4.27778 6.73125V68.2687C4.27778 69.0167 4.52446 69.6312 5.01783 70.1125C5.51192 70.5931 6.14289 70.8333 6.91075 70.8333Z" fill="#E3E3E3"/>
</svg>
