<svg width="126" height="101" viewBox="0 0 126 101" fill="none" xmlns="http://www.w3.org/2000/svg">
<path d="M6.52588 35.4215V80.8958V6.22276V35.4215ZM75.5501 94.7772C77.9005 94.7772 79.9104 93.9813 81.58 92.3893C83.2484 90.7983 84.0827 88.8817 84.0827 86.6394C84.0827 84.3982 83.2484 82.4816 81.58 80.8896C79.9104 79.2987 77.9005 78.5032 75.5501 78.5032C73.1986 78.5032 71.1886 79.2987 69.5202 80.8896C67.8506 82.4816 67.0159 84.3982 67.0159 86.6394C67.0159 88.8817 67.8506 90.7983 69.5202 92.3893C71.1886 93.9813 73.1986 94.7772 75.5501 94.7772ZM110.94 43.5593C113.291 43.5593 115.301 42.7633 116.97 41.1713C118.639 39.5804 119.474 37.6638 119.474 35.4215C119.474 33.1803 118.639 31.2636 116.97 29.6717C115.301 28.0797 113.291 27.2837 110.94 27.2837C108.588 27.2837 106.578 28.0797 104.91 29.6717C103.24 31.2636 102.406 33.1803 102.406 35.4215C102.406 37.6638 103.24 39.5804 104.91 41.1713C106.578 42.7633 108.588 43.5593 110.94 43.5593ZM53.9641 34.2252C54.8886 34.2252 55.6636 33.9265 56.289 33.3291C56.9143 32.7317 57.227 31.9917 57.227 31.1091C57.227 30.2265 56.9143 29.4881 56.289 28.8938C55.6636 28.2995 54.8886 28.0024 53.9641 28.0024H26.1035C25.179 28.0024 24.4041 28.3011 23.7787 28.8985C23.1533 29.4959 22.8406 30.2359 22.8406 31.1185C22.8406 32.001 23.1533 32.7395 23.7787 33.3338C24.4041 33.928 25.179 34.2252 26.1035 34.2252H53.9641ZM53.9641 59.1162C54.8886 59.1162 55.6636 58.8175 56.289 58.2201C56.9143 57.6227 57.227 56.8827 57.227 56.0001C57.227 55.1175 56.9143 54.3791 56.289 53.7848C55.6636 53.1906 54.8886 52.8934 53.9641 52.8934H26.1035C25.179 52.8934 24.4041 53.1921 23.7787 53.7895C23.1533 54.3869 22.8406 55.1269 22.8406 56.0095C22.8406 56.8921 23.1533 57.6305 23.7787 58.2248C24.4041 58.819 25.179 59.1162 26.1035 59.1162H53.9641ZM10.5426 87.1186C7.53848 87.1186 5.03036 86.1592 3.01822 84.2406C1.00607 82.3219 0 79.9303 0 77.0657V10.0529C0 7.18832 1.00607 4.79671 3.01822 2.87802C5.03036 0.959342 7.53848 0 10.5426 0H114.203C115.127 0 115.902 0.298694 116.528 0.896078C117.153 1.49346 117.466 2.23346 117.466 3.11605C117.466 3.99864 117.153 4.73708 116.528 5.33135C115.902 5.92562 115.127 6.22276 114.203 6.22276H10.5426C9.53757 6.22276 8.61688 6.62153 7.78048 7.41908C6.94408 8.21663 6.52588 9.09456 6.52588 10.0529V77.0657C6.52588 78.024 6.94408 78.902 7.78048 79.6995C8.61688 80.4971 9.53757 80.8958 10.5426 80.8958H44.1753C45.0998 80.8958 45.8747 81.1945 46.5001 81.7919C47.1255 82.3893 47.4382 83.1293 47.4382 84.0119C47.4382 84.8945 47.1255 85.6329 46.5001 86.2272C45.8747 86.8215 45.0998 87.1186 44.1753 87.1186H10.5426ZM75.5501 101C71.367 101 67.8109 99.604 64.8819 96.8121C61.954 94.0191 60.49 90.6282 60.49 86.6394C60.49 83.1537 61.6092 80.1221 63.8475 77.5449C66.0848 74.9687 68.898 73.3373 72.2871 72.6507V62.9463C72.2871 61.5213 72.7924 60.3276 73.8028 59.3651C74.8121 58.4016 76.0634 57.9199 77.5568 57.9199H107.677V49.4118C104.289 48.7252 101.476 47.0933 99.2374 44.516C96.999 41.9398 95.8798 38.9083 95.8798 35.4215C95.8798 31.4327 97.3443 28.0423 100.273 25.2504C103.201 22.4574 106.757 21.0609 110.94 21.0609C115.123 21.0609 118.679 22.4574 121.606 25.2504C124.535 28.0423 126 31.4327 126 35.4215C126 38.9083 124.881 41.9398 122.642 44.516C120.404 47.0933 117.591 48.7252 114.203 49.4118V59.1162C114.203 60.5402 113.698 61.7339 112.687 62.6974C111.677 63.6609 110.425 64.1426 108.932 64.1426H78.813V72.6507C82.201 73.3373 85.0142 74.9687 87.2526 77.5449C89.4899 80.1221 90.6085 83.1537 90.6085 86.6394C90.6085 90.6282 89.1446 94.0191 86.2166 96.8121C83.2887 99.604 79.7332 101 75.5501 101Z" fill="#4FB7B3"/>
</svg>
